<svg xmlns="http://www.w3.org/2000/svg" xml:space="preserve" viewBox="0 0 50 50" id="Map">
  <path d="M16.996.992 1 3.125v46.177l16.008-4.269 15.935 3.984L49 46.875V.858L32.996 2.992l-16-2zM47 3.142v41.982l-13.943 1.859-16.065-4.016L3 46.698V4.875l14.004-1.867 16 2L47 3.142z" fill="#ffffff" class="color000000 svgShape"></path>
  <path d="m24.272 34.686.728.772.728-.771C26.106 34.285 35 24.764 35 17c0-8.11-5.166-11-10-11S15 8.89 15 17c0 7.764 8.894 17.285 9.272 17.686zM25 8c2.405 0 8 .877 8 9 0 5.761-5.904 13.082-8 15.499-2.097-2.417-8-9.731-8-15.499 0-8.123 5.595-9 8-9z" fill="#ffffff" class="color000000 svgShape"></path>
  <path d="M25 21c2.757 0 5-2.243 5-5s-2.243-5-5-5-5 2.243-5 5 2.243 5 5 5zm0-8c1.654 0 3 1.346 3 3s-1.346 3-3 3-3-1.346-3-3 1.346-3 3-3z" fill="#ffffff" class="color000000 svgShape"></path>
</svg>