<svg xmlns="http://www.w3.org/2000/svg" xml:space="preserve" viewBox="0 0 50 50" id="Phone">
  <path d="M1 49h48V1H1v48zM3 3h44v44H3V3z" fill="#ffffff" class="color000000 svgShape"></path>
  <path d="M14 6h-3c-2.757 0-5 2.243-5 5v28c0 2.757 2.243 5 5 5h3c2.757 0 5-2.243 5-5V11c0-2.757-2.243-5-5-5zm3 33c0 1.654-1.346 3-3 3h-3c-1.654 0-3-1.346-3-3V11c0-1.654 1.346-3 3-3h3c1.654 0 3 1.346 3 3v28zM22 16h22V6H22v10zm2-8h18v6H24V8zM23 27h4v2h-4zM31 27h4v2h-4zM39 27h4v2h-4zM23 32h4v2h-4zM31 32h4v2h-4zM39 32h4v2h-4zM23 37h4v2h-4zM31 37h4v2h-4zM39 37h4v2h-4zM23 42h4v2h-4zM31 42h4v2h-4zM39 42h4v2h-4zM22 24h8v-6h-8v6zm2-4h4v2h-4v-2zM36 24h8v-6h-8v6zm2-4h4v2h-4v-2z" fill="#ffffff" class="color000000 svgShape"></path>
</svg>