<?xml version="1.0" standalone="no"?>
<!DOCTYPE svg PUBLIC "-//W3C//DTD SVG 20010904//EN"
 "http://www.w3.org/TR/2001/REC-SVG-20010904/DTD/svg10.dtd">
<svg version="1.0" xmlns="http://www.w3.org/2000/svg"
 width="225.000000pt" height="225.000000pt" viewBox="0 0 225.000000 225.000000"
 preserveAspectRatio="xMidYMid meet">

<g transform="translate(0.000000,225.000000) scale(0.100000,-0.100000)"
fill="#000000" stroke="none">
<path d="M242 1368 c-20 -20 -14 -41 50 -188 54 -125 63 -140 75 -124 7 9 9
22 5 28 -22 28 -123 276 -117 285 8 15 2 14 -13 -1z"/>
<path d="M497 1362 c-13 -14 -17 -47 -19 -169 -3 -144 -2 -151 15 -136 15 14
17 36 17 158 0 96 4 145 12 153 7 7 8 12 2 12 -6 0 -18 -8 -27 -18z"/>
<path d="M797 1362 c-22 -24 -23 -114 -2 -132 13 -11 14 -15 1 -29 -8 -10 -15
-45 -18 -89 -4 -72 -3 -73 14 -52 13 16 18 39 18 79 0 31 5 62 12 69 9 9 9 12
-1 12 -9 0 -12 20 -9 80 2 44 3 80 2 80 0 0 -8 -8 -17 -18z"/>
<path d="M915 1370 c27 -12 35 -12 35 0 0 6 -12 10 -27 9 -25 0 -26 -1 -8 -9z"/>
<path d="M1275 1360 c-71 -35 -113 -134 -86 -200 10 -24 10 -24 10 8 2 101 92
191 193 193 33 0 38 2 23 9 -35 15 -99 11 -140 -10z"/>
<path d="M1905 1359 c-4 -17 12 -66 55 -162 34 -75 58 -142 54 -148 -4 -7 -1
-10 7 -7 29 9 19 53 -42 191 -34 78 -63 144 -65 146 -2 2 -6 -7 -9 -20z"/>
<path d="M1511 1247 c-1 -51 -21 -96 -61 -134 -31 -31 -36 -32 -89 -27 -38 4
-67 2 -91 -8 -35 -14 -35 -15 29 -10 46 3 62 1 57 -7 -4 -6 -22 -11 -39 -12
-32 0 -32 0 -7 -10 14 -6 41 -9 60 -6 27 3 43 -3 70 -24 43 -34 77 -43 110
-30 l25 10 -23 0 c-28 1 -59 16 -89 44 l-22 20 26 20 c50 39 77 137 53 192 -7
16 -9 12 -9 -18z"/>
<path d="M935 1050 c-19 -8 -19 -9 2 -9 12 -1 25 4 28 9 7 12 -2 12 -30 0z"/>
<path d="M1262 840 c0 -14 2 -19 5 -12 2 6 2 18 0 25 -3 6 -5 1 -5 -13z"/>
<path d="M1340 846 c0 -2 8 -10 18 -17 15 -13 16 -12 3 4 -13 16 -21 21 -21
13z"/>
</g>
</svg>
