<svg xmlns="http://www.w3.org/2000/svg" viewBox="0 0 32 32" id="Call">
  <path d="M15.438 1.031C8.436 1.296 2.43 6.408 1.217 13.437a.5.5 0 0 0 1 .188A13.983 13.983 0 0 1 16.782 2.031c7.098.397 12.768 6.03 13.188 13.125.42 7.096-4.561 13.395-11.563 14.625a.5.5 0 1 0 .188.969c7.493-1.316 12.824-8.061 12.375-15.656-.45-7.595-6.529-13.639-14.125-14.063-.475-.026-.94-.017-1.407 0zM15.905 3a.5.5 0 0 0-.406.5v1a.5.5 0 1 0 1 0v-1A.5.5 0 0 0 16 3a.5.5 0 0 0-.094 0zm.063 3a.5.5 0 0 0-.469.5v4a.5.5 0 1 0 1 0v-4A.5.5 0 0 0 16 6a.5.5 0 0 0-.031 0zm-4.25 6.469c-1.306 0-2 .77-2 2.125v.844H11v-.907c0-.604.264-.844.688-.844.423 0 .687.208.687.97 0 2.442-2.656 2.852-2.656 5.343v1.031h3.844v-1.187h-2.5c-.013-.06 0-.127 0-.188 0-1.39 2.624-2.402 2.624-5.062 0-1.354-.662-2.125-1.968-2.125zm4.906.094-2.406 5.75V19.5h2.562v1.531h1.313V19.5h.625v-1.188h-.625v-5.75h-1.469zm.156 2.562v3.188h-1.343l1.343-3.188zm2.719.375a.5.5 0 0 0 .094 1H25.5a.5.5 0 1 0 0-1h-5.906a.5.5 0 0 0-.094 0zm7.906 0a.5.5 0 0 0 .094 1h1a.5.5 0 1 0 0-1h-1a.5.5 0 0 0-.094 0zm-26 .5a.5.5 0 0 0-.25.156.5.5 0 0 0 0 .032.5.5 0 0 0-.093.093.5.5 0 0 0 0 .032.5.5 0 0 0-.032.062.5.5 0 0 0 0 .031.5.5 0 0 0-.031.125c.141 7.903 6.515 14.26 14.406 14.438a.5.5 0 0 0 .188 0 .5.5 0 0 0 .281-.125.5.5 0 0 0 .063-.094.5.5 0 0 0 .03-.031.5.5 0 0 0 .032-.094.5.5 0 0 0 0-.281v-4.719a.5.5 0 0 0 0-.188.5.5 0 0 0-.094-.218.5.5 0 0 0 0-.032.5.5 0 0 0-.031 0 .5.5 0 0 0 0-.03.5.5 0 0 0-.281-.157.5.5 0 0 0-.125 0 5.097 5.097 0 0 1-3.094-.875.5.5 0 0 0-.031 0 .5.5 0 0 0 0-.031.5.5 0 0 0-.031 0 .5.5 0 0 0-.032 0 .5.5 0 0 0 0-.032.5.5 0 0 0-.25-.062.5.5 0 0 0-.437.281l-.031.032-.72 1.437a10.663 10.663 0 0 1-4.562-4.563l1.469-.78a.5.5 0 0 0 .25-.532.5.5 0 0 0 0-.031.5.5 0 0 0-.031-.063.5.5 0 0 0 0-.031.5.5 0 0 0-.032-.031.5.5 0 0 0-.03-.063.5.5 0 0 0 0-.031 5.07 5.07 0 0 1-.876-3.094A.5.5 0 0 0 6.47 16H1.562a.5.5 0 0 0-.062 0 .5.5 0 0 0-.094 0zm.625 1h4.031c.037.979.297 1.93.782 2.781l-1.469.719a.5.5 0 0 0-.125.094.5.5 0 0 0-.031.031.5.5 0 0 0-.063.094.5.5 0 0 0 0 .031.5.5 0 0 0-.031.063.5.5 0 0 0 0 .03.5.5 0 0 0 0 .126.5.5 0 0 0 0 .031.5.5 0 0 0 0 .063.5.5 0 0 0 0 .03.5.5 0 0 0 .031.063c.004.009-.004.023 0 .032a.5.5 0 0 0 .094.125 11.665 11.665 0 0 0 5.438 5.437.5.5 0 0 0 .124.094c.009.004.023-.004.032 0a.5.5 0 0 0 .094.062.5.5 0 0 0 .03 0 .5.5 0 0 0 .063 0 .5.5 0 0 0 .031 0 .5.5 0 0 0 .063 0 .5.5 0 0 0 .063-.031.5.5 0 0 0 .03 0 .5.5 0 0 0 .126-.063.5.5 0 0 0 .031 0 .5.5 0 0 0 .094-.125.5.5 0 0 0 0-.03.5.5 0 0 0 .031-.032l.75-1.406c.843.475 1.783.712 2.75.75v3.968C8.01 29.556 2.408 23.995 2.031 17z" style="line-height:normal;text-indent:0;text-align:start;text-decoration-line:none;text-decoration-style:solid;text-decoration-color:#000;text-transform:none;block-progression:tb;white-space:normal;isolation:auto;mix-blend-mode:normal;solid-color:#000;solid-opacity:1" color="#000" font-style="normal" font-variant="normal" font-weight="400" font-stretch="normal" font-size="medium" font-family="sans-serif" text-decoration="none" letter-spacing="normal" word-spacing="normal" direction="ltr" writing-mode="lr-tb" baseline-shift="baseline" text-anchor="start" clip-rule="nonzero" display="inline" overflow="visible" visibility="visible" opacity="1" color-interpolation="sRGB" color-interpolation-filters="linearRGB" fill="#ffffff" fill-opacity="1" fill-rule="nonzero" stroke="none" stroke-width=".99999994" stroke-linecap="round" stroke-linejoin="round" stroke-miterlimit="4" stroke-dasharray="none" stroke-dashoffset="1.5" stroke-opacity="1" color-rendering="auto" image-rendering="auto" shape-rendering="auto" text-rendering="auto" enable-background="accumulate" class="color000000 svgShape"></path>
</svg>